<?xml version="1.0" encoding="UTF-8"?>
<svg viewBox="0 0 605.24329 267.89874" xmlns="http://www.w3.org/2000/svg" xmlns:xlink="http://www.w3.org/1999/xlink">
 <defs>
  <filter id="d" x="-.10241" y="-.14488" width="1.2048" height="1.2898">
   <feGaussianBlur stdDeviation="1.17094"/>
  </filter>
  <filter id="e" x="-.06881" y="-.46874" width="1.1376" height="1.9375">
   <feGaussianBlur stdDeviation="4.11366"/>
  </filter>
  <filter id="at" x="-.20089" y="-.29801" width="1.4018" height="1.596">
   <feGaussianBlur stdDeviation="2.80384"/>
  </filter>
  <linearGradient id="b">
   <stop stop-color="#333" offset="0"/>
   <stop offset="1"/>
  </linearGradient>
  <linearGradient id="c">
   <stop stop-color="#fff" stop-opacity=".8" offset="0"/>
   <stop stop-color="#ccc" stop-opacity=".8" offset="1"/>
  </linearGradient>
  <linearGradient id="a">
   <stop stop-opacity=".49804" offset="0"/>
   <stop stop-color="#fff" stop-opacity=".49804" offset="1"/>
  </linearGradient>
  <linearGradient id="as" x1="420.51" x2="525.47" gradientUnits="userSpaceOnUse" xlink:href="#a"/>
  <linearGradient id="ar" x1="193.09" x2="463.39" gradientUnits="userSpaceOnUse" xlink:href="#a"/>
  <linearGradient id="aq" x1="441.14" x2="583.77" gradientUnits="userSpaceOnUse" xlink:href="#a"/>
  <linearGradient id="ap" x1="572.62" x2="607.1" gradientUnits="userSpaceOnUse" xlink:href="#a"/>
  <linearGradient id="ao" x1="531.19" x2="608.08" gradientUnits="userSpaceOnUse" xlink:href="#a"/>
  <linearGradient id="an" x1="371.63" x2="431.6" gradientUnits="userSpaceOnUse" xlink:href="#a"/>
  <linearGradient id="am" x1="419.57" x2="448.08" gradientUnits="userSpaceOnUse" xlink:href="#a"/>
  <linearGradient id="al" x1="415.64" x2="448.26" gradientUnits="userSpaceOnUse" xlink:href="#a"/>
  <linearGradient id="ak" x1="424.89" x2="450.25" gradientUnits="userSpaceOnUse" xlink:href="#a"/>
  <linearGradient id="aj" x1="419.5" x2="567.37" gradientUnits="userSpaceOnUse" xlink:href="#a"/>
  <linearGradient id="ai" x1="488.07" x2="466.92" y1="183.62" y2="115.19" gradientUnits="userSpaceOnUse" xlink:href="#a"/>
  <linearGradient id="ah" x1="445.57" x2="542.64" gradientUnits="userSpaceOnUse" xlink:href="#a"/>
  <linearGradient id="ag" x1="324.79" x2="445.55" gradientUnits="userSpaceOnUse" xlink:href="#a"/>
  <linearGradient id="af" x1="201.26" x2="443.45" gradientUnits="userSpaceOnUse" xlink:href="#a"/>
  <linearGradient id="ae" x1="152.79" x2="379.02" gradientUnits="userSpaceOnUse" xlink:href="#a"/>
  <linearGradient id="ad" x1="295.2" x2="364.22" gradientUnits="userSpaceOnUse" xlink:href="#a"/>
  <linearGradient id="ac" x1="155.45" x2="299.89" gradientUnits="userSpaceOnUse" xlink:href="#a"/>
  <linearGradient id="ab" x1="92.31" x2="165.51" gradientUnits="userSpaceOnUse" xlink:href="#a"/>
  <linearGradient id="aa" x1="3.1919" x2="11.434" gradientUnits="userSpaceOnUse" xlink:href="#a"/>
  <linearGradient id="z" x1="93.858" x2="319.31" gradientUnits="userSpaceOnUse" xlink:href="#a"/>
  <linearGradient id="y" x1="45.441" x2="94.269" gradientUnits="userSpaceOnUse" xlink:href="#a"/>
  <linearGradient id="x" x1="8.7655" x2="95.405" gradientUnits="userSpaceOnUse" xlink:href="#a"/>
  <linearGradient id="w" x1="5.204" x2="53.691" gradientUnits="userSpaceOnUse" xlink:href="#a"/>
  <linearGradient id="v" x1="4.7577" x2="50.272" gradientUnits="userSpaceOnUse" xlink:href="#a"/>
  <linearGradient id="u" x1="5.4495" x2="349.47" gradientUnits="userSpaceOnUse" xlink:href="#a"/>
  <linearGradient id="t" x1="97.659" x2="438.14" gradientUnits="userSpaceOnUse" xlink:href="#a"/>
  <linearGradient id="s" x1="40.974" x2="243.19" gradientUnits="userSpaceOnUse" xlink:href="#a"/>
  <linearGradient id="r" x1="93.422" x2="198.87" gradientUnits="userSpaceOnUse" xlink:href="#a"/>
  <linearGradient id="q" x1="40.733" x2="95.507" gradientUnits="userSpaceOnUse" xlink:href="#a"/>
  <linearGradient id="p" x1="13.738" x2="86.897" gradientUnits="userSpaceOnUse" xlink:href="#a"/>
  <radialGradient id="o" cx="489.93" cy="719.46" r="20.028" gradientTransform="matrix(1 0 0 .25952 -18.784 -152.03)" gradientUnits="userSpaceOnUse" xlink:href="#c"/>
  <radialGradient id="n" cx="495.4" cy="727.36" r="43.49" gradientTransform="matrix(1 0 0 .54577 -18.784 -354.39)" gradientUnits="userSpaceOnUse" xlink:href="#b"/>
  <radialGradient id="m" cx="289.4" cy="724.49" r="48.359" gradientTransform="matrix(1 0 0 .32752 -18.784 -197.58)" gradientUnits="userSpaceOnUse" xlink:href="#c"/>
  <radialGradient id="l" cx="337.86" cy="724.16" r="120.02" gradientTransform="matrix(1 0 0 .22969 -18.784 -126.95)" gradientUnits="userSpaceOnUse" xlink:href="#b"/>
  <radialGradient id="k" cx="416.76" cy="718.98" r="33.63" gradientTransform="matrix(1 0 0 .12154 -18.784 -53.187)" gradientUnits="userSpaceOnUse" xlink:href="#c"/>
  <radialGradient id="j" cx="611.94" cy="848.95" r="14.036" gradientTransform="matrix(1 0 0 3.2603 -18.784 -2603.6)" gradientUnits="userSpaceOnUse" xlink:href="#c"/>
  <radialGradient id="i" cx="414.03" cy="881.42" r="24.899" gradientTransform="matrix(1 0 0 2.3852 -18.784 -1905.7)" gradientUnits="userSpaceOnUse" xlink:href="#c"/>
  <radialGradient id="h" cx="591.46" cy="848.9" r="35.649" gradientTransform="matrix(1 0 0 1.642 -18.784 -1229.7)" gradientUnits="userSpaceOnUse" xlink:href="#b"/>
  <radialGradient id="g" cx="393.56" cy="881.36" r="49.218" gradientTransform="matrix(1 0 0 1.5336 -18.784 -1155.1)" gradientUnits="userSpaceOnUse" xlink:href="#b"/>
  <radialGradient id="f" cx="82.547" cy="921.05" r="36.419" gradientTransform="matrix(1 0 0 .20191 -18.784 50.305)" gradientUnits="userSpaceOnUse" xlink:href="#b"/>
 </defs>
 <g transform="translate(-3.0829 -4.1626)">
  <path transform="translate(3.0829 4.1626)" d="m375.38 0c-8.9588 8e-3 -18.362 0.23569-28.281 0.65625-22.719 0.96325-69.906 4.4879-85.344 11.281-48.637 21.402-63.041 38.25-72.375 45.781-3.0374 2.451-99.998-1.485-139.88 19.031-20.615 10.606-32.079 26.33-38.844 39.281 0 0 8.569 5.9009 13.219 8.1875 6.9616 3.4236 12.906 6.9688 12.906 6.9688 0.67275 0.8158 0.14393 1.9722 0 4.375-0.03195 0.53331-1.0832 1.3906-9.4062-2.8438-7.8366-3.9868-17.15-10.63-17.531-11.594s-0.39591-2.2066-0.15625-3.25c-4.3635 8.742-6.5905 15.977-8.125 19.125-3.7391 7.67 0.375 48.32 0.375 58.656 0 4.7567 15.073 25.372 18.938 27.75 2.6941 1.6579 18.046 6.1018 26.281 6.2188 3.5784 0.0508 2.5634-4.3849 3.5-4.625 3.0919-0.7928 113.23 9.9178 117.09 9.125s3.4712 5.5279 13.906 7.9062c6.447 1.4694 141.9 4.9036 149.56 3.5938 6.9567-1.1892 15.079-30.931 16.625-35.688 1.4666-4.5126 10.745-101.11 49.469-99.125 24.105 1.2362 27.34 33.346 27.938 63.469 0.41179 20.761-10.415 53.997-7.8125 52.688 20.484-10.306 132.94-29.719 132.94-29.719 18.551-29.333 22.467-70.561 24.719-76.125 5.4178-13.388 13.872-27.27 18.25-25.5 8.1036 3.2761 8.7113 36.056 9.5938 29.406 1.7474-13.169-6.563-42.598-18.281-56.844-4.1326-5.0239-9.4038-6.2335-13.031-8.0938-13.913-7.1351-33.112-5.2533-35.562-7.9062-30.783-33.323-74.085-52.27-160.69-52.188zm-365.69 117.88c0.29796-0.59695 0.61909-1.2024 0.9375-1.8125-0.40759 0.31201-0.75139 1.0022-0.9375 1.8125zm371.06-110.22c31.732-0.0109 57.087 2.5801 55.156 10.5-1.6397 6.727-12.564 34.179-14.75 40.906s-62.319 2.25-73.25 2.25c-7.8241 0-26.842-3.9484-48.125-4.6875-43.107-1.4969-97.958-0.15741-103.81 1.3438 0 0 57.302-38.075 69.938-42.062 8.4377-2.6628 68.466-8.234 114.84-8.25zm78.75 7.0312c9.7926-0.11151 25.288 3.7475 34.594 13.562 17.936 18.918 23.653 28.521 22.844 28.594-45.59 4.0745-53.671 4.8921-86.875 5.3125 0 0 10.84-36.519 18.938-43.281 1.9323-1.6137 3.5304-3.7359 8.625-4.0938 0.59849-0.0421 1.2222-0.08635 1.875-0.09375zm-125.03 111.06c0.6186 0.0183 0.97443 0.05911 1.0312 0.15625 0 0-9.6913 5.9341-15.875 8.3125-5.0663 1.9486-130.24 14.598-128.28 13.094 4.6378-3.5675 4.6269-6.7466 7.7188-9.125 0.8037-0.61825 12.905-1.286 23.062-2.0625 33.736-2.5788 103.06-10.651 112.34-10.375zm-330.75 13.094c0.05123 3e-3 0.12737 0.03367 0.1875 0.125 10.165 15.434 32.446 24.567 33.219 28.531 0.92209 4.7287 6.1773 27.738 2.3125 28.531-4.2513 0-27.834-9.495-31.312-13.062-3.3697-3.4561-5.9943-44.235-4.4062-44.125zm306.12 14.344c1.468-9e-3 2.3064 0.13657 2.4375 0.46875 0.77921 1.9751-13.171 43.27-15.812 48.344-2.5699 4.936-97.631 9.1286-98.938 5.1562-0.98633-2.9985 8.4149-28.76 13.125-31.312 14.195-7.6918 84.997-22.569 99.188-22.656z" fill="#000080"/>
  <path d="m312.92 157.34c-14.19 0.0873-85.003 14.982-99.198 22.674-4.7101 2.5522-14.112 28.307-13.126 31.305 1.3067 3.9724 96.377-0.21712 98.947-5.1531 2.6418-5.0741 16.606-46.368 15.827-48.343-0.13105-0.33218-0.98138-0.49213-2.4493-0.4831zm-26.315 11.627c1.0841 0.0177 1.9035 0.20421 2.2609 0.64414 0 0-6.4112 17.854-9.4206 19.356-5.673 2.8322-22.313 3.6784-23.457 3.0919s-0.90007-2.9848-0.0942-3.3817c1.5679-0.77242 8.8882-1.063 10.959-2.0612 2.2112-1.0658 8.0188-16.329 9.7346-16.329 1.2868 0 6.7649-1.3738 10.017-1.3205z"/>
  <path d="m42.521 200.22c-4.2513 0-27.827-9.5135-31.305-13.081s-6.1757-46.922-4.2513-44c10.165 15.434 32.465 24.576 33.238 28.54 0.92209 4.7287 6.1838 27.748 2.3189 28.54z"/>
  <path transform="matrix(1.0049 0 0 1.0306 -18.787 -716.99)" d="m32.347 812.31s8.5529 5.7368 13.18 7.9555c6.928 3.3218 12.834 6.7259 12.834 6.7259 0.66949 0.79156 0.1239 1.942-0.01933 4.2734-0.03179 0.51746-1.0548 1.3625-9.3376-2.746-7.7987-3.8684-17.07-10.344-17.449-11.279-0.67991-1.6744-0.15531-4.2734 0.79256-4.93z" fill="#fff" filter="url(#d)"/>
  <path transform="matrix(1.0049 0 0 1.0306 -18.787 -716.99)" d="m355.63 821.88s-9.6154 5.7692-15.769 8.0769c-5.0418 1.8907-129.64 14.152-127.69 12.692 4.6154-3.4615 4.6154-6.5385 7.6923-8.8462 0.79982-0.59987 12.874-1.2216 22.982-1.975 35.811-2.669 111.88-11.456 112.79-9.948z" fill="#fff" filter="url(#e)"/>
  <path d="m27.344 228.98s4.2205 14.202 35.333 14.636c28.01 0.39101 38.918-8.8118 37.361-8.9346-35.024-2.7617-47.749-7.2462-46.306-5.2733 0 0 1.8564 5.5357-1.7418 4.8426-1.8269-0.3519-19.727-3.0285-24.646-5.2709z" fill="url(#f)"/>
  <path d="m391.22 121.1c-29.752 0.52223-39.601 87.387-41.438 92.406-0.89655 2.4506-9.9782 35.01-12.406 35.406-4.9765 0.81242-6.6904 1.1325-11.812 1.3125 0 0 4.9431 14.569 14.219 17.344s39.324 5.6756 46.719 4c4.041-0.91562 9.1032-1.5792 12.906-5.2812 1.678-1.6334 3.7579-2.8031 5.9688-5.4688 4.623-5.574 9.4491-13.372 9.6562-15.469 0.63644-6.4418 8.0168-38.874 8.7812-51.062 1.2103-19.298-3.1898-59.426-22.688-70.406-3.5165-1.9803-6.8285-2.8353-9.9062-2.7812zm6.0312 16.156c13.029 0.24053 21.199 28.307 22.75 47.719 1.2759 15.965-5.7496 67.802-26.594 70.938-12.407 1.8662-20.565-18.327-22.75-48.281-2.2551-30.92 8.001-68.248 25.312-70.312 0.43037-0.0513 0.86095-0.0703 1.2812-0.0625z" fill="url(#g)"/>
  <path d="m423.81 206.77c0.72647 3.8602 4.9837-19.432 3.2405-46.439-1.2745-10.632-2.2661-24.86-9.6049-35.667-3.9495-5.8163-8.4622-10.176-14.866-10.987-11.71-1.3523-21.685 9.1305-22.466 11.015-0.87481 2.1117 19.8-11.244 33.213 12.295 3.3211 5.8283 4.6341 11.512 6.7961 18.508 5.986 19.369 3.0945 48.123 3.688 51.276z"/>
  <path d="m591.28 105.6c-11.099 0.59698-17.305 34.728-21.75 53.25-1.1098 4.6245-0.58763 7.3183-1.5312 9.6562-2.5883 6.4127-11.693 32.588-14.562 33.219-4.4499 0.97801-13.742 1.8921-16.406 2.3125 0 0 3.7009 13.872 6.5625 15.969 2.4053 1.7624 39.811 3.6091 43.438 2.0938 2.0678-0.86405 6.981-1.7854 10.344-8.2812 5.9865-11.564 9.4462-29.702 10.375-40.062 1.8366-20.488-0.12926-62.925-14.188-67.812-0.78442-0.27272-1.5413-0.38355-2.2812-0.34375zm3.4062 12.812c9.4314 0.21933 12.703 20.606 12.5 48.25-0.18683 25.382-9.5176 44.389-15.562 43.219-6.7994-1.316-10.807-12.138-12.281-37.938-1.6147-28.252 5.9123-53.751 15.344-53.531z" fill="url(#h)"/>
  <path transform="matrix(1.0049 0 0 1.0306 -18.787 -716.99)" d="m306.18 860.24s-6.396 17.324-9.3908 18.782c-5.6456 2.7481-22.197 3.5816-23.335 3.0124s-0.88527-2.9118-0.0833-3.297c1.5603-0.74946 8.836-1.0234 10.897-1.992 2.2005-1.0342 7.9852-15.835 9.6927-15.835s10.796-2.3772 12.219-0.66975z" fill="#fff" filter="url(#at)"/>
  <path d="m40.671 135.58s-24.592-12.318-26.88-15.837c-0.89177-1.372 9.4505-17.461 23.451-29.458 8.4355-7.2286 29.415-18.211 49.61-19.374 1.0536-0.0607-16.834 9.3179-29.824 25.711-8.4214 10.627-14.783 27.77-16.357 38.959z" fill="url(#p)"/>
  <path d="m41.962 144.96s10.631 5.061 23.437 9.5928c13.971 4.944 28.203 8.5075 28.326 6.9979 0.4044-4.9772 3.2367-12.453 0.80878-12.858-5.9579-0.99403-14.591-1.5476-28.313-4.5397-12.581-2.7435-24.681-10.14-25.068-9.1476-0.8088 2.0738-0.4044 7.0511 0.8088 9.9544z" fill="url(#q)"/>
  <path d="m93.422 162.17s98.168-8.088 100.19-10.162c3.3348-3.4203 4.1778-5.9775 5.2572-7.4658 0.43184-0.59549-50.287 2.2312-58.449 2.4664-22.46 0.6473-42.131 1.1388-43.561 0.9554-1.4194-0.18211-0.80881 9.5397-3.4374 14.206z" fill="url(#r)"/>
  <path d="m41.386 134.4s18.461 12.563 54.331 13.931c1.3004 0.0496 21.461-28.273 52.524-49.629 31.996-21.998 74.889-35.412 94.92-38.178 2.4803-0.34245-147.23 2.6741-157.6 11.355-5.5158 4.6182-15.415 9.6183-23.377 18.744-15.899 18.222-23.076 41.091-20.802 43.776z" fill="url(#s)"/>
  <path d="m97.659 147.89s96.046-1.9671 101.19-3.7268 94.831-74.858 184.19-73.701c52.778 0.68373 55.099-3.8986 55.099-3.8986s-77.62 0.2863-88.605-1.2799c-45.757-6.5237-97.145-6.3198-108.59-4.5858-22.559 3.4188-96.393 22.082-143.29 87.192z" fill="url(#t)"/>
  <path d="m349.47 213.1s-10.213 35.53-12.01 35.68c-7.7422 0.64806-150.24-1.6947-155.43-3.0752-4.5646-1.2161-10.237-8.1002-12.01-8.1053-72.947-0.20739-116.77-8.7986-116.77-8.7986s1.9602 3.5506 0.16751 5.451c-0.80048 0.84854-32.111-6.9489-33.708-8.7986-7.2792-8.4308-14.202-23.127-14.263-26.117-0.03469-1.6885 39.733 23.084 87.201 25.43s242.95-3.3243 256.82-11.666z" fill="url(#u)"/>
  <path d="m4.7577 198.88s46.609 20.536 45.495 17.835c-2.2242-5.392-6.066-15.969-8.2902-16.383-4.3766-0.81616-28.308-10.991-29.926-11.821s-6.8748 7.8806-7.2792 10.369z" fill="url(#v)"/>
  <path d="m50.324 216.98c0.15603 0.4121 3.4374 1.2799 3.3659 0.97618-0.10376-0.44082-4.1524-12.648-7.4261-26.609-4.2118-17.961-6.7145-37.42-7.1322-39.962-0.32241-1.9619-28.924-18.75-30.843-18.75-0.46152 0-1.3876 3.8907-3.0677 7.3548-0.36876 0.76035 5.1494 9.4979 16.098 17.738 9.359 7.0439 18.445 11.439 18.883 13.908 0.8088 4.5625 3.8243 18.856 3.7234 23.508-0.05146 2.3719-0.31406 5.2773-0.12557 5.792 0.5894 1.6095 3.1519 7.908 3.9624 9.7924 1.4414 3.351 1.5866 3.6755 2.562 6.2517z" fill="url(#w)"/>
  <path d="m93.691 198.96c1.4992-1.3627 2.2114-35.366 1.3287-35.591-17.274-4.4038-34.713-9.805-48.682-16.411-1.9509-0.92258-2.6517-0.78312-4.2522-2.1838-0.80771-0.70691-0.61587-4.1723-1.5096-4.327-0.70938-0.12282-2.2144-0.0696-3.5367-0.55691-3.6668-1.3512-7.996-3.3734-10.437-4.9022-10.672-6.6841-14.337-10.438-14.761-10.253s-4.0429 6.9306-2.8278 7.9573 29.436 15.876 30.092 18.877c0.77342 3.54 4.0511 31.866 6.4268 33.571 3.1971 2.2945 45.299 14.113 48.159 13.82z" fill="url(#x)"/>
  <path d="m92.31 224.59s2.5758-23.5 1.8198-25.094c-0.55076-1.1607-28.6-6.192-48.528-14.31-1.4703-0.59889 7.6052 32.892 8.6946 33.181 16.682 4.4276 36.8 7.0511 38.014 6.2215z" fill="url(#y)"/>
  <path d="m93.858 198.93s71.202 1.7597 72.632-0.58659 17.936-38.363 23.448-40.18c8.0067-2.6396 127.33-15.934 129.37-18.323 0.94162-1.105-220.45 22.869-223.02 22.869-1.5727 0-0.42893 28.302-2.4306 36.221z" fill="url(#z)"/>
  <path d="m4.5555 198.25s1.6757-3.5443 3.4691-6.0451c1.685-2.3496 3.4976-3.6564 3.4056-3.9094-2.4814-6.8304-3.8651-18.94-4.3133-25.791-0.83688-12.792-0.97907-17.837-0.44348-19.247 0.08983-0.23647-1.4869-2.9548-1.4869-2.9548-0.74301-0.0137-2.0604 3.9484-1.9921 27.252 0.07857 26.82 1.5751 30.146 1.361 30.695z" fill="url(#aa)"/>
  <path d="m92.31 224.8s59.978 0.8539 60.458 1e-5c1.4898-2.6535 14.534-26.451 12.536-26.13-16.783 2.696-70.128-0.91465-70.77 0.62215-0.60659 1.4517-1.6176 23.227-2.2242 25.508z" fill="url(#ab)"/>
  <path d="m299.89 205.23s-3.6673 14.756-5.3598 14.756c-2.0555-1e-5 -33.175 2.4293-58.939 3.245-40.291 1.2757-80.941 2.272-80.135 1.9629 6.4882-2.4889 40.799-13.281 45.7-13.02 12.306 0.65496 40.154 0.47635 56.703-0.79318 33.872-2.5985 37.839-3.4001 42.031-6.1507z" fill="url(#ac)"/>
  <path d="m295.2 219.99s54.655-4.0917 54.655-7.3651 14.362-61.785 14.362-61.785c-6.4226 3.7231-47.476 4.5894-48.272 7.3651-1.9947 6.956-19.548 60.558-20.745 61.785z" fill="url(#ad)"/>
  <path d="m340.28 129.15s40.123-5.7626 38.698-4.0917c-5.2548 6.162-12.367 18.413-13.564 23.732-0.32394 1.4397 0.33758 2.9566-20.51 5.5348-8.8119 1.0898-30.218 2.343-32.565 2.6863-51.701 7.5627-121.38 19.349-122.67 19.867-2.2084 0.88856-6.762 1.3722-3.7841 2.5997 4.2206 1.7398 27.674-0.49199 26.33 1.2275-1.4305 1.831-3.1916 7.7743-5.1863 7.7743s-14.934 3.3479-19.447 4.0918c-1.9694 0.32459-2.9863 2.7071 0.48744 4.0917s16.683-0.62405 16.284 0.40916c-0.41828 1.0833-2.004 5.395-3.0842 9.0142-0.85406 2.8614-0.72341 5.327-1.1632 5.5466-1.9495 0.9737-47.762 14.51-47.313 13.213 0.57522-1.6623 32.295-64.191 35.885-66.237s129.26-16.367 134.05-19.231 15.559-9.0018 17.554-10.229z" fill="url(#ae)"/>
  <path d="m605.87 127.52c0.21517-7.7378-3.0155-27.089-9.9871-27.524-5.3109-0.33099-9.8699 7.2449-10.069 8.0743-0.38514 1.6014 5.2735-5.748 11.569 0.11194 6.7901 6.3199 8.3748 23.371 8.487 19.338z"/>
  <path d="m204.76 196.65s-4.9572 0.5012-9.6371 0.36921c-4.5816-0.12921-9.1814 0.72856-9.2539-2.2866s4.7552-2.2902 10.971-4.1468c5.6479-1.6871 11.483-2.6042 11.069-1.6053s-1.9678 5.0457-3.1485 7.6695z"/>
  <path d="m285.25 161.24s-24.531 4.7969-45.985 10.434c-13.88 3.6472-25.175 7.9478-26.371 7.9758-5.8383 0.13622-27.845 0.98181-28.107-0.71355-0.43897-2.833 98.098-17.839 100.46-17.697z"/>
  <path d="m201.26 142.05s114.73-9.4427 120.92-11.56c3.3322-1.1402 24.139-30.412 49.091-41.648 24.968-11.244 72.187-6.5159 72.187-6.5159s-3.0135-14.303-4.3427-14.404c-2.5889-0.19655-16.97 2.7982-41.386 2.4038-22.821-0.36866-44.594 0.88509-68.012 6.9758-47.28 12.297-105.38 45.384-128.45 64.748z" fill="url(#af)"/>
  <path d="m324.79 130.05s39.505-3.7157 48.015-5.853c3.9521-0.99261 11.705-13.348 21.449-15.743 11.695-2.8744 16.51 2.6851 21.056 5.853 1.7748 1.2368 2.0853-25.713 7.0842-26.843s22.737-0.0265 23.024-0.40364 0.055-3.9817-0.46314-4.748c-0.27016-0.39959-26.443-2.1581-48.72 0.39585-13.57 1.5557-22.96 5.6765-26.3 7.1942-8.5074 3.8663-25.072 16.937-45.144 40.147z" fill="url(#ag)"/>
  <path d="m448.18 120.16s95.444-30.292 94.455-31.687c-1.5743-2.2201-9.4455-14.935-11.61-15.137s-85.833 7.6447-85.451 9.4268c1.4374 6.7056 2.8027 31.342 2.6059 37.397z" fill="url(#ah)"/>
  <path d="m449.03 119.53 1.3727 73.773s80.165-15.205 80.989-16.895 12.939-88.62 10.707-87.571c-6.5889 3.0974-84.009 28.721-93.069 30.692z" fill="url(#ai)"/>
  <path d="m419.5 229.94s41.933-11.161 78.913-18.807c27.602-5.7065 52.173-8.7795 54.76-9.8706 3.9616-1.6708 15.22-34.129 14.125-34.014-3.0746 0.32319-34.325 9.4808-66.544 16.606-35.776 7.9122-72.746 13.901-73.661 14.936-1.8504 2.0921-7.5562 25.598-7.5947 31.149z" fill="url(#aj)"/>
  <path d="m427.05 198.48s22.552-3.9999 22.981-4.7141c0.69663-1.1583-0.4309-73.363-1.1491-73.805-1.3265-0.8163-23.987 9.5755-23.987 9.5755s13.932 38.449 2.1545 68.944z" fill="url(#ak)"/>
  <path d="m425.05 129.32s22.363-9.5611 22.953-9.6355c0.42187-0.0532 0.20314-4.5834 0.20314-4.5834-4.0727-0.76022-28.285-23.229-28.895-21.979s-3.0746 20.005-3.6563 21.198c-0.30467 0.625 6.2462 7.7605 9.3946 15z" fill="url(#al)"/>
  <path d="m448.08 115.1s-1.1121-28.113-2.1513-28.113c-1.2188 0-22.153-0.54611-23.981 0.59973s-2.6694 4.9885-2.2816 5.4294c0.62722 0.71309 24.859 20.834 28.414 22.084z" fill="url(#am)"/>
  <path d="m425.79 201.76s5.3148-12.881 5.7716-28.733c0.49709-17.251-4.1984-42.499-10.619-51.149-5.3864-7.257-7.6945-11.562-18.172-13.894-12.67-2.8198-23.387 11.223-26.641 13.894-4.309 3.5356-3.1936 1.9351-4.4102 2.7554-1.0802 0.72837 7.6919 0.41399 8.224-0.0525 1.0986-0.96312 11.273-12.682 22.04-10.879 10.676 1.7873 20.105 11.88 23.915 36.46 1.9508 12.585 1.9754 27.401 1.1385 37.911-0.492 6.1784-1.5653 11.232-1.2462 13.686z" fill="url(#an)"/>
  <path d="m531.19 176.42s36.348-8.7409 36.752-9.6738c1.108-2.5537 7.8301-51.73 18.228-65.542 6.9525-9.2351 19.001-9.8137 21.682 19.318 0 0 0.48359-3.7083 0.0496-6.3664-1.2522-7.6707-10.997-38.167-24.278-44.95-5.5668-2.8431-19.915 7.5637-28.689 14.626-3.7067 2.9837-11.808 3.9146-12.037 5.6273 0 0-8.4656 82.461-11.708 86.961z" fill="url(#ao)"/>
  <path d="m572.62 143.2s10.994-44.473 22.73-43.2c10.233 1.1099 10.557 27.622 11.096 30.163 0.39103 1.8449 3.802-31.543-10.018-34.251-3.1577-0.6187-6.8437 0.81212-9.4278 4.4066-5.8961 8.2014-12.218 27.681-14.379 42.882z" fill="url(#ap)"/>
  <path d="m441.14 66.817s3.2176 9.9324 4.418 15c0.36799 1.5536 76.782-9.6876 86.38-8.1251 2.7744 0.45167 9.4415 14.591 11.274 14.688 4.0671 0.2146 13.05-4.9271 22.928-12.845 7.7656-6.2247 14.792-7.0075 17.139-6.6865 4.5704 0.625-23.918-12.344-42.961-12.5-3.7873-0.0311-8.6733-9.2038-23.186-19.605-12.069-8.6498-30.796-16.559-44.303-21.177-1.2034-0.41144 36.027 13.487 45.921 31.671 4.6327 8.5149 6.4861 12.861 6.4861 12.861-5.8338 2.7534-74.04 6.0938-84.094 6.7188z" fill="url(#aq)"/>
  <path d="m193.09 61.462s5.7348 0.49835 6.5635-0.0536c2.4019-1.5998 63.012-40.21 70.478-41.729 14.105-2.8704 52.281-6.1177 92.115-7.5162 39.243-1.3777 76.119-0.34029 77.874 10.168 0 0 5.2553-11.664 23.268-9.1704 0 0-15.494-3.8253-37.784-6.7097-56.178-7.2694-152.8 5.0408-160.21 9.5824-6.1495 3.7651-14.346-0.3125-72.301 45.429z" fill="url(#ar)"/>
  <path d="m420.51 65.752s11.096 1.5468 12.604 0.22098 12.18-46.28 25.746-46.736c9.8733-0.33146 27.923-0.4956 43.959 18.985 5.367 6.5199 11.708 12.635 17.444 22.889 0 0 5.6624-0.41359 5.1708-1.3258-3.2675-6.0635-6.4158-15.484-16.851-24.178-12.228-10.187-37.815-24.369-53.708-22.558-8.3201 0.94817-15.717 7.3145-19.351 19.242-1.3507 4.4338-4.5341 12.464-6.5839 17.894-3.4556 9.1535-4.44 15.648-8.4293 15.566z" fill="url(#as)"/>
  <path transform="matrix(1.0049 0 0 1.0306 -18.787 -716.99)" d="m355.63 821.88s-9.6154 5.7692-15.769 8.0769c-5.0418 1.8907-129.64 14.152-127.69 12.692 4.6154-3.4615 4.6154-6.5385 7.6923-8.8462 0.79982-0.59987 12.874-1.2216 22.982-1.975 35.811-2.669 111.88-11.456 112.79-9.948z" fill="#fff" filter="url(#e)"/>
  <path transform="matrix(1.0049 0 0 1.0306 -18.787 -716.99)" d="m355.63 821.88s-9.6154 5.7692-15.769 8.0769c-5.0418 1.8907-129.64 14.152-127.69 12.692 4.6154-3.4615 4.6154-6.5385 7.6923-8.8462 0.79982-0.59987 12.874-1.2216 22.982-1.975 35.811-2.669 111.88-11.456 112.79-9.948z" fill="#fff" filter="url(#e)"/>
  <path transform="matrix(1.0049 0 0 1.0306 -18.787 -716.99)" d="m32.347 812.31s8.5529 5.7368 13.18 7.9555c6.928 3.3218 12.834 6.7259 12.834 6.7259 0.66949 0.79156 0.1239 1.942-0.01933 4.2734-0.03179 0.51746-1.0548 1.3625-9.3376-2.746-7.7987-3.8684-17.07-10.344-17.449-11.279-0.67991-1.6744-0.15531-4.2734 0.79256-4.93z" fill="#fff" filter="url(#d)"/>
  <path transform="matrix(1.0049 0 0 1.0306 -18.787 -716.99)" d="m32.347 812.31s8.5529 5.7368 13.18 7.9555c6.928 3.3218 12.834 6.7259 12.834 6.7259 0.66949 0.79156 0.1239 1.942-0.01933 4.2734-0.03179 0.51746-1.0548 1.3625-9.3376-2.746-7.7987-3.8684-17.07-10.344-17.449-11.279-0.67991-1.6744-0.15531-4.2734 0.79256-4.93z" fill="#fff" filter="url(#d)"/>
  <path d="m397.25 137.25c-0.4203-8e-3 -0.85088 0.0112-1.2812 0.0625-17.312 2.0646-27.568 39.393-25.312 70.312 2.1847 29.955 10.343 50.148 22.75 48.281 20.844-3.1353 27.87-54.972 26.594-70.938-1.5513-19.412-9.7206-47.478-22.75-47.719zm-2.0938 9.7812c0.77547 0 3.7188 4.1944 3.7188 5.125s1.8842-0.46413 3.125 0.15625-0.46875 9.603-0.46875 10.844-10.406 11.188-10.406 11.188c-0.1551-0.93057 2.1644-8.5405 3.25-9.7812s6e-3 -17.531 0.78125-17.531zm-11.781 3.875s6.2095 12.1 4.9688 12.875-2.3438 7e-3 -2.3438 0.9375-1.0752 11.625-2.7812 11.625-8.0579-7.603-7.4375-8.8438 5.2673-16.284 7.5938-16.594zm24.094 19.281c0.22706 1.0121 3.1766 14.091 2.2812 14.688-0.93056 0.62037-2.4768 2.9641-3.5625 2.3438s-7.7558 1.397-8.5312 0.15625-1.2454-3.1018-0.625-4.1875c0.60098-1.0517 10.655-9.1146 10.438-13zm-35.094 15.938c0.77546-0.1551 8.3634 3.4236 6.8125 5.75s-4.0243 4.3183-3.0938 5.0938 3.2465 6.6933 2.7812 7.4688 2.4884 2.625 0.9375 2.625-7.5972 3.7199-8.0625 3.875c0 0-0.15047-24.657 0.625-24.812zm33.656 16.688c1.4364-5e-3 2.6185 0.11955 2.9375 0.53125 1.0519 1.3575-1.5671 10.383-2.1875 15.656 0 0-7.8889-9.4444-9.75-10.375s0.45137-5.4375 2.3125-5.4375c1.1632 0 4.2936-0.36683 6.6875-0.375zm-15.219 14.938c1.2408 0 8.6944 9.0081 9.625 10.094s0.62384 9.7558 0.46875 10.531-1.0741-0.4676-2.625-0.3125-1.0891 2.816-0.46875 3.2812-4.0312 3.7188-4.0312 3.7188c-0.31019-1.0857-0.46297-12.402 0.3125-15.969s-4.522-11.344-3.2812-11.344zm-7.9688 0.28125c0.0308-3e-3 0.0431 0.0119 0.0625 0.0312 0.62037 0.62037 2.7882 13.66 3.7188 14.125s-5.434 9.7581-4.9688 10.844c0 0-6.0312-6.9733-6.0312-12.094-1e-5 -2.2537 6.2636-12.813 7.2188-12.906z" fill="url(#i)"/>
  <path d="m406.79 219.01s-7.9098-9.4607-9.7709-10.391 0.46528-5.4283 2.3264-5.4283 8.7651-0.94279 9.6158 0.15509c1.0519 1.3575-1.5509 10.391-2.1713 15.664z"/>
  <path d="m393.76 245.06s4.6528-3.257 4.0324-3.7222-1.0857-3.1019 0.46528-3.257 2.4815 1.0856 2.6366 0.31018 0.46528-9.4607-0.46528-10.546-8.3751-10.081-9.6158-10.081 4.0324 7.7547 3.257 11.322-0.62038 14.889-0.31019 15.975z"/>
  <path d="m381.67 243.05s-6.0486-6.9769-6.0486-12.097c-1e-5 -2.3264 6.669-13.493 7.2894-12.873s2.7917 13.648 3.7222 14.114-5.4283 9.7709-4.963 10.857z"/>
  <path d="m371.74 210.94s-0.15509-24.66 0.62038-24.815 8.3751 3.4121 6.8241 5.7385-4.0324 4.3426-3.1019 5.1181 3.257 6.669 2.7917 7.4445 2.4815 2.6366 0.93056 2.6366-7.5996 3.7222-8.0649 3.8773z"/>
  <path d="m383.37 150.92s6.2038 12.097 4.963 12.873-2.3264 0-2.3264 0.93056-1.0856 11.632-2.7917 11.632-8.0649-7.5996-7.4445-8.8403 5.2732-16.285 7.5996-16.595z"/>
  <path d="m391.13 174.34s10.391-9.926 10.391-11.167 1.706-10.236 0.46528-10.857-3.1019 0.77547-3.1019-0.1551-2.9468-5.1181-3.7222-5.1181 0.31019 16.285-0.77547 17.526-3.4121 8.8403-3.257 9.7709z"/>
  <path d="m407.41 169.84s3.257 14.424 2.3264 15.044-2.4815 2.9468-3.5672 2.3264-7.7547 1.3958-8.5302 0.1551-1.2408-3.1019-0.62037-4.1875 11.322-9.6158 10.391-13.338z"/>
  <path d="m594.68 118.41c-9.4314-0.21933-16.958 25.28-15.344 53.531 1.4746 25.8 5.4818 36.621 12.281 37.938 6.0449 1.17 15.376-17.837 15.562-43.219 0.20347-27.644-3.0686-48.031-12.5-48.25zm-0.1875 11.781c0.0585-0.0109 0.1121 8.1e-4 0.1875 0.0625 1.2063 0.98701 1.8756 7.3721 1.6562 8.4688s-2.8438-0.21875-2.8438-0.21875c1.0281-0.30844 0.12247-8.1486 1-8.3125zm-8.3438 0.3125c0.78897 0.0672 3.9616 7.245 2.625 7.6562-1.4257 0.43867-1.3261-0.20518-2.0938 0.5625s-0.76299 4.8137-1.75 4.375-2.1341-5.6141 1.0938-12.5c0.0294-0.0628 0.0724-0.0982 0.125-0.0937zm10.75 19.5s0.86143 6.9062 0.0937 6.9062-11.828 1.9858-11.938 1.4375 7.8957-8.1244 11.844-8.3438zm-10.438 18.562c2.8428-0.14908 8.7777 0.99324 10.094 2.0625 0 0 1.0035 7.4546-0.3125 6.9062s-11.203-6.8084-11.312-8.3438c-0.0274-0.38384 0.58365-0.57531 1.5312-0.625zm3.4375 16.625c0.67212 0.0157 3.6309 1.992 4.3438 2.4375 0.87734 0.54834 0.5625 9.7482 0.5625 10.406s-2.5312 0.125-2.5312 0.125c1.316-8.5541-1.6386-11.309-2.4062-12.625-0.14394-0.24675-0.12385-0.34736 0.0312-0.34375zm-5.5 0.34375c1.974-0.21934 3.0613 3.0572 3.5 5.0312s-3.9688 5.9375-3.9688 5.9375c-0.87734-0.43867-1.0938-5.4959-1.0938-7.0312s-0.41152-3.7182 1.5625-3.9375z" fill="url(#j)"/>
  <path d="m583.95 196.5s4.3867-3.948 3.948-5.9221-1.5353-5.2641-3.5094-5.0447-1.5354 2.4127-1.5354 3.948 0.21934 6.5801 1.0967 7.0187z"/>
  <path d="m592.28 198.15s2.5224 0.54834 2.5224-0.10967 0.329-9.8701-0.54834-10.418-5.1544-3.3997-4.3867-2.0837 3.7287 4.0577 2.4127 12.612z"/>
  <path d="m596.56 170.62s0.98701 7.4574-0.329 6.9091-11.186-6.7994-11.296-8.3348 9.8701 0 11.625 1.4257z"/>
  <path d="m596.89 150s0.87735 6.9091 0.10967 6.9091-11.844 1.974-11.954 1.4257 7.8961-8.1154 11.844-8.3348z"/>
  <path d="m593.49 138.49s2.632 1.316 2.8514 0.21934-0.43867-7.4574-1.645-8.4444-0.10967 7.8961-1.2064 8.2251z"/>
  <path d="m586.03 130.59c0.47101-1.0048 4.1674 7.1284 2.7417 7.5671s-1.316-0.21934-2.0837 0.54834-0.76768 4.8254-1.7547 4.3867-2.1312-5.6162 1.0967-12.502z"/>
  <path d="m431.61 37.546s-48.699 1.8611-52.422-0.31018-9.6158-5.5834-14.269-6.2038 20.472-1.8611 27.296 0.31018 36.912 0.31019 37.222 1.5509 1.8611 0 2.1713 4.6528z" fill="url(#k)"/>
  <path d="m383.84 11.817c-46.378 0.016-106.41 5.5872-114.84 8.25-12.635 3.9874-69.938 42.062-69.938 42.062 5.8545-1.5012 60.706-2.8407 103.81-1.3438 21.283 0.73907 40.301 4.6875 48.125 4.6875 10.931 0 71.064 4.5083 73.25-2.2188s13.11-34.21 14.75-40.938c1.9305-7.92-23.424-10.511-55.156-10.5zm-96.531 12.062c9.9655 0.0319 21.651 1.5652 31.469 7.25 2.3621 1.3678-16.531 16.887-20.406 21.719-1.8664 2.3274-75.644 3.4328-76.094 2.1875-0.54244-1.5018 37.922-28.748 43.844-29.406 2.961-0.329 11.222-1.7819 21.188-1.75zm86.938 6.25c6.5527-0.11632 14.557 0.1331 17.969 1.2188 6.8241 2.1713 36.909 0.2905 37.219 1.5312s1.8773 3e-3 2.1875 4.6562c0 0-48.715 1.8588-52.438-0.3125s-9.6284-5.5671-14.281-6.1875c-2.3264-0.31019 2.791-0.78993 9.3438-0.90625z" fill="url(#l)"/>
  <path d="m318.77 31.125c2.3621 1.3678-16.523 16.882-20.398 21.714-1.8664 2.3274-75.66 3.4386-76.109 2.1934-0.54244-1.5018 37.945-28.733 43.867-29.391s33.005-5.8862 52.641 5.4834z" fill="url(#m)"/>
  <path d="m462.59 18.849c-0.65284 7e-3 -1.2765 0.0517-1.875 0.0937-5.0946 0.35787-6.6614 2.48-8.5938 4.0938-8.0975 6.7623-19 43.281-19 43.281 33.204-0.42043 41.316-1.238 86.906-5.3125 0.80882-0.0723-4.877-9.6759-22.812-28.594-9.3053-9.815-24.832-13.674-34.625-13.562zm-10.5 10.625c2.4815 0 27.28 3.7257 31.312 4.6562s11.179 4.0312 5.9062 4.0312-15.206 2.8009-17.688 1.25-10.841-7.4595-18.906-6.2188c0 0-3.1065-3.7188-0.625-3.7188z" fill="url(#n)"/>
  <path d="m452.7 33.204s-3.1019-3.7222-0.62037-3.7222 27.296 3.7222 31.329 4.6528 11.167 4.0324 5.8936 4.0324-15.199 2.7917-17.681 1.2408-10.857-7.4445-18.921-6.2038z" fill="url(#o)"/>
 </g>
</svg>
