<?xml version="1.0" encoding="UTF-8"?>
<svg viewBox="0 0 744.09447 1052.362179" xmlns="http://www.w3.org/2000/svg">
 <g transform="translate(103.27)">
  <path d="m197.74 99.899c-17.784 0-34.269 13.227-34.269 31.607a13.877 13.86 0 0 0 0 0.0639l1.0549 199.5-16.911-44.186a13.877 13.86 0 0 0 -1.8541 -3.3842c-6.6563-8.8278-15.383-14.902-24.551-16.41s-16.687 0.624-23.943 2.4264c-11.002 2.733-17.315 12.042-19.82 20.816-2.3804 8.3379-2.0767 17.336 1.1188 26.052h-0.0319l36.73 128.47a13.877 13.86 0 0 0 1.2467 3.001l61.696 109.47 14.897 50.06a13.877 13.86 0 0 0 13.426 9.897l141.52-1.1493a13.877 13.86 0 0 0 13.458 -11.046l38.52-184.91a13.877 13.86 0 0 0 0.1279 -0.6704c1.9062-12.115 1.2286-32.48 0.7672-53.476-0.2307-10.498-0.5249-20.663-0.7352-28.542s-0.1555-15.288-0.2557-13.824a13.877 13.86 0 0 0 0.0319 -0.9578v-61.968a13.877 13.86 0 0 0 -0.3197 -3.001c-1.6762-7.5415-4.0229-14.639-9.3983-20.848-4.9961-5.7702-13.806-9.4046-22.089-8.9393v-0.1277c-0.3803 0-0.7405 0.1133-1.1188 0.1277-0.254 0.0264-0.5148-0.0348-0.7672 0v0.0957c-5.7815 0.3705-11.22 2.3404-15.696 5.4274v-4.0865c0-18.391-16.508-31.607-34.301-31.607h-0.0958c-10.151 0-19.765 4.4112-26.245 11.525v-18.613c2e-5 -18.361-16.503-31.575-34.269-31.575-8.8273 0-17.345 3.2481-23.688 8.7796v-36.396c-2e-5 -18.35-16.453-31.607-34.237-31.607z" fill="#ccc"/>
  <path d="m204.2 88.926c-17.784 0-34.269 13.227-34.269 31.607a13.877 13.86 0 0 0 0 0.0639l1.0549 199.5-16.911-44.186a13.877 13.86 0 0 0 -1.8541 -3.3842c-6.6563-8.8278-15.383-14.902-24.551-16.41s-16.687 0.624-23.943 2.4264c-11.002 2.733-17.315 12.042-19.82 20.816-2.3804 8.3379-2.0767 17.336 1.1188 26.052h-0.0319l36.73 128.47a13.877 13.86 0 0 0 1.2467 3.001l61.696 109.47 14.897 50.06a13.877 13.86 0 0 0 13.426 9.897l141.52-1.1493a13.877 13.86 0 0 0 13.458 -11.046l38.52-184.91a13.877 13.86 0 0 0 0.1279 -0.6704c1.9062-12.115 1.2286-32.48 0.7672-53.476-0.2307-10.498-0.5249-20.663-0.7352-28.542s-0.1555-15.288-0.2557-13.824a13.877 13.86 0 0 0 0.0319 -0.9578v-61.968a13.877 13.86 0 0 0 -0.3197 -3.001c-1.6762-7.5415-4.0229-14.639-9.3983-20.848-4.9961-5.7702-13.806-9.4046-22.089-8.9393v-0.1277c-0.3803 0-0.7405 0.1133-1.1188 0.1277-0.254 0.0264-0.5148-0.0348-0.7672 0v0.0957c-5.7815 0.3705-11.22 2.3404-15.696 5.4274v-4.0865c0-18.391-16.508-31.607-34.301-31.607h-0.0958c-10.151 0-19.765 4.4112-26.245 11.525v-18.613c2e-5 -18.361-16.503-31.575-34.269-31.575-8.8273 0-17.345 3.2481-23.688 8.7796v-36.396c-2e-5 -18.35-16.453-31.607-34.237-31.607z" fill="#999"/>
  <g transform="translate(-5.4769 16.431)" stroke="#000">
   <path d="m219.72 68.844c-17.385 0-33.5 12.947-33.5 30.938a13.566 13.566 0 0 0 0 0.0625l1.0313 195.28-16.531-43.25a13.566 13.566 0 0 0 -1.8125 -3.3125c-6.5069-8.6409-15.038-14.587-24-16.062s-16.313 0.6108-23.406 2.375c-10.756 2.6751-16.926 11.787-19.375 20.375-2.327 8.1614-2.0301 16.97 1.0938 25.5h-0.0312l35.906 125.75a13.566 13.566 0 0 0 1.2188 2.9375l60.312 107.16 14.562 49a13.566 13.566 0 0 0 13.125 9.6875l138.34-1.125a13.566 13.566 0 0 0 13.156 -10.812l37.656-181a13.566 13.566 0 0 0 0.125 -0.6563c1.8635-11.858 1.2011-31.792 0.75-52.344-0.2255-10.276-0.5131-20.226-0.7188-27.938s-0.152-14.965-0.25-13.531a13.566 13.566 0 0 0 0.0312 -0.9375v-60.656a13.566 13.566 0 0 0 -0.3125 -2.9375c-1.6386-7.3818-3.9326-14.329-9.1875-20.406-4.884-5.6481-13.497-9.2055-21.594-8.75v-0.125c-0.3718 0-0.7239 0.1109-1.0938 0.125-0.2483 0.0258-0.5032-0.0341-0.75 0v0.0937c-5.6518 0.3627-10.969 2.2909-15.344 5.3125v-4c0-18.002-16.138-30.938-33.531-30.938h-0.0937c-9.9235 0-19.322 4.3178-25.656 11.281v-18.219c2e-5 -17.972-16.132-30.906-33.5-30.906-8.6293 0-16.956 3.1793-23.156 8.5938v-35.625c-2e-5 -17.962-16.084-30.938-33.469-30.938z" stroke-width="1.149"/>
   <path d="m219.71 82.409c-11.034 0-19.927 7.7413-19.927 17.367l1.1873 226.75c-0.3118 8.2138-12.535 9.6701-14.838 3.6616l-28.057-73.463c-10.454-13.883-19.379-12.144-33.279-8.6871-9.4454 2.3493-13.357 17.108-8.5584 28.995l35.883 125.75 61.065 108.5 15.016 50.446 138.33-1.1261 37.676-181.02c2.4804-15.784-0.7698-86.542-0.3513-92.663v-60.641c-2.7552-12.412-7.9218-20.001-17.548-18.672-11.053 0-16.731 9.0458-16.731 18.672v60.02c1.9293 8.1364-14.734 10.256-14.022-0.0407v-90.657c0-9.6259-8.9048-17.381-19.958-17.381h-0.0935c-11.053 0-19.942 7.7549-19.942 17.381v72.806c2.0148 8.8009-19.738 11.376-19.257-0.0408v-110.64c1e-5 -9.6259-8.9048-17.367-19.958-17.367s-19.958 7.7413-19.958 17.367v116.3c0.8731 8.0681-16.322 10.101-16.764-0.0271v-174.23c-1e-5 -9.6259-8.8778-17.367-19.911-17.367v-2e-5 1e-5l-1e-5 5e-5h6e-5z" fill="#fff" stroke-width=".5346"/>
  </g>
 </g>
</svg>
